<svg xmlns="http://www.w3.org/2000/svg" viewBox="0 0 43 33">
  <g fill="none" fill-rule="evenodd">
    <path d="M-10-10h179v60H-10z"/>
    <path fill="#0072FF" d="M36.955 12.364L27.74 32.352h-3.68l9.698-21.036c1.136.18 2.212.534 3.197 1.048zM20.838.624L6.663 31.377C3.046 29.7.53 26.03.53 21.763c0-5.848 4.714-10.59 10.53-10.59 0-5.592 4.315-10.16 9.778-10.55zm11.283 10.55l-9.76 21.18h-3.99L30.63 5.76c.94 1.586 1.492 3.432 1.492 5.413h.002zm3.63 20.52L42 18.134c.41 1.133.65 2.352.65 3.63 0 4.562-2.877 8.44-6.9 9.93zm2.76-18.333c.88.68 1.64 1.48 2.27 2.39L33.15 32.3c-.34.033-.682.052-1.03.052h-2.37l8.755-18.99zM21.63.59c1.493.006 2.91.328 4.196.897l-14.23 30.868h-.535c-1.32 0-2.58-.256-3.75-.704L21.63.59zm8.166 3.96l-12.82 27.802h-4.3l14.03-30.428c1.19.668 2.24 1.56 3.09 2.624z"/>
  </g>
</svg>
